<svg xmlns="http://www.w3.org/2000/svg" width="512" height="512"><path d="M51 110v80.453l160 191V512h18.473L301 487.754V381.453l160-191V110H51zm220 260.547v95.699l-30 10.169V370.547L98.133 200h315.734L271 370.547zM431 170H81v-30h350v30zM136 0c-11.028 0-20 8.972-20 20s8.972 20 20 20 20-8.972 20-20-8.972-20-20-20zm120 0c-11.028 0-20 8.972-20 20s8.972 20 20 20 20-8.972 20-20-8.972-20-20-20zm-60 50c-11.028 0-20 8.972-20 20s8.972 20 20 20 20-8.972 20-20-8.972-20-20-20zm120 0c-11.028 0-20 8.972-20 20s8.972 20 20 20 20-8.972 20-20-8.972-20-20-20zm60-50c-11.028 0-20 8.972-20 20s8.972 20 20 20 20-8.972 20-20-8.972-20-20-20z" fill="#FFF"/></svg>