<?xml version="1.0" encoding="iso-8859-1"?>
<!-- Generator: Adobe Illustrator 19.0.0, SVG Export Plug-In . SVG Version: 6.00 Build 0)  -->
<svg xmlns="http://www.w3.org/2000/svg" xmlns:xlink="http://www.w3.org/1999/xlink" version="1.1" id="Layer_1" x="0px" y="0px" viewBox="0 0 512 512" style="enable-background:new 0 0 512 512;" xml:space="preserve" width="512px" height="512px">
<g>
	<g>
		<path d="M51,110v80.453l160,191V512h18.473L301,487.754V381.453l160-191V110H51z M271,370.547v95.699l-30,10.169V370.547    L98.133,200h315.734L271,370.547z M431,170H81v-30h350V170z" fill="#FFFFFF"/>
	</g>
</g>
<g>
	<g>
		<path d="M136,0c-11.028,0-20,8.972-20,20s8.972,20,20,20s20-8.972,20-20S147.028,0,136,0z" fill="#FFFFFF"/>
	</g>
</g>
<g>
	<g>
		<path d="M256,0c-11.028,0-20,8.972-20,20s8.972,20,20,20s20-8.972,20-20S267.028,0,256,0z" fill="#FFFFFF"/>
	</g>
</g>
<g>
	<g>
		<path d="M196,50c-11.028,0-20,8.972-20,20s8.972,20,20,20s20-8.972,20-20S207.028,50,196,50z" fill="#FFFFFF"/>
	</g>
</g>
<g>
	<g>
		<path d="M316,50c-11.028,0-20,8.972-20,20s8.972,20,20,20s20-8.972,20-20S327.028,50,316,50z" fill="#FFFFFF"/>
	</g>
</g>
<g>
	<g>
		<path d="M376,0c-11.028,0-20,8.972-20,20s8.972,20,20,20s20-8.972,20-20S387.028,0,376,0z" fill="#FFFFFF"/>
	</g>
</g>
<g>
</g>
<g>
</g>
<g>
</g>
<g>
</g>
<g>
</g>
<g>
</g>
<g>
</g>
<g>
</g>
<g>
</g>
<g>
</g>
<g>
</g>
<g>
</g>
<g>
</g>
<g>
</g>
<g>
</g>
</svg>
